REM MD5 2e8a74fe7d8e13aec2c69ce6a3c56989
FILE "Vampire - The Night Warriors (Japan).bin" BINARY
  TRACK 01 MODE2/2352
    INDEX 01 00:00:00
  TRACK 02 AUDIO
    INDEX 00 04:39:30
    INDEX 01 04:41:30
  TRACK 03 AUDIO
    INDEX 00 05:04:07
    INDEX 01 05:06:07
  TRACK 04 AUDIO
    INDEX 00 05:29:18
    INDEX 01 05:31:18
  TRACK 05 AUDIO
    INDEX 00 05:52:72
    INDEX 01 05:54:72
  TRACK 06 AUDIO
    INDEX 00 06:18:28
    INDEX 01 06:20:28
  TRACK 07 AUDIO
    INDEX 00 06:48:17
    INDEX 01 06:50:17
  TRACK 08 AUDIO
    INDEX 00 07:16:01
    INDEX 01 07:18:01
  TRACK 09 AUDIO
    INDEX 00 07:46:38
    INDEX 01 07:48:38
  TRACK 10 AUDIO
    INDEX 00 08:16:36
    INDEX 01 08:18:36
  TRACK 11 AUDIO
    INDEX 00 08:41:64
    INDEX 01 08:43:64
  TRACK 12 AUDIO
    INDEX 00 09:08:05
    INDEX 01 09:10:05
  TRACK 13 AUDIO
    INDEX 00 09:33:38
    INDEX 01 09:35:38
  TRACK 14 AUDIO
    INDEX 00 09:57:53
    INDEX 01 09:59:53
  TRACK 15 AUDIO
    INDEX 00 10:33:40
    INDEX 01 10:35:40
  TRACK 16 AUDIO
    INDEX 00 11:03:54
    INDEX 01 11:05:54
  TRACK 17 AUDIO
    INDEX 00 11:10:62
    INDEX 01 11:12:62
  TRACK 18 AUDIO
    INDEX 00 12:10:12
    INDEX 01 12:12:12
  TRACK 19 AUDIO
    INDEX 00 13:49:30
    INDEX 01 13:51:30
  TRACK 20 AUDIO
    INDEX 00 15:29:57
    INDEX 01 15:31:57
  TRACK 21 AUDIO
    INDEX 00 17:09:01
    INDEX 01 17:11:01
  TRACK 22 AUDIO
    INDEX 00 18:46:67
    INDEX 01 18:48:67
  TRACK 23 AUDIO
    INDEX 00 20:20:02
    INDEX 01 20:22:02
  TRACK 24 AUDIO
    INDEX 00 21:56:48
    INDEX 01 21:58:48
  TRACK 25 AUDIO
    INDEX 00 23:37:39
    INDEX 01 23:39:39
  TRACK 26 AUDIO
    INDEX 00 25:32:02
    INDEX 01 25:34:02
  TRACK 27 AUDIO
    INDEX 00 26:46:28
    INDEX 01 26:48:28
  TRACK 28 AUDIO
    INDEX 00 28:33:06
    INDEX 01 28:35:06
  TRACK 29 AUDIO
    INDEX 00 30:01:33
    INDEX 01 30:03:33
  TRACK 30 AUDIO
    INDEX 00 31:42:56
    INDEX 01 31:44:56
  TRACK 31 AUDIO
    INDEX 00 32:18:27
    INDEX 01 32:20:27
  TRACK 32 AUDIO
    INDEX 00 33:14:04
    INDEX 01 33:16:04
  TRACK 33 AUDIO
    INDEX 00 34:17:36
    INDEX 01 34:19:36
  TRACK 34 AUDIO
    INDEX 00 36:01:37
    INDEX 01 36:03:37
  TRACK 35 AUDIO
    INDEX 00 37:40:32
    INDEX 01 37:42:32
  TRACK 36 AUDIO
    INDEX 00 38:53:68
    INDEX 01 38:55:68
  TRACK 37 AUDIO
    INDEX 00 40:33:46
    INDEX 01 40:35:46
  TRACK 38 AUDIO
    INDEX 00 41:59:00
    INDEX 01 42:01:00
  TRACK 39 AUDIO
    INDEX 00 42:51:23
    INDEX 01 42:53:23
  TRACK 40 AUDIO
    INDEX 00 44:23:04
    INDEX 01 44:25:04
  TRACK 41 AUDIO
    INDEX 00 44:30:05
    INDEX 01 44:32:05
  TRACK 42 AUDIO
    INDEX 00 45:23:23
    INDEX 01 45:25:23
  TRACK 43 AUDIO
    INDEX 00 45:31:00
    INDEX 01 45:33:00
  TRACK 44 AUDIO
    INDEX 00 46:17:06
    INDEX 01 46:19:06
  TRACK 45 AUDIO
    INDEX 00 48:17:66
    INDEX 01 48:19:66
  TRACK 46 AUDIO
    INDEX 00 48:59:65
    INDEX 01 49:01:65
  TRACK 47 AUDIO
    INDEX 00 51:49:35
    INDEX 01 51:51:35
REM LEADOUT 55:21:35
